<mxfile host="app.diagrams.net" modified="2023-09-01T20:37:34.955Z" agent="Mozilla/5.0 (Windows NT 10.0; Win64; x64) AppleWebKit/537.36 (KHTML, like Gecko) Chrome/116.0.0.0 Safari/537.36" etag="imSIqi9GN3FhkdNMRr5v" version="21.7.2" type="github">
  <diagram name="Page-1" id="80d4a630-b321-0f5e-ff81-c5a36ef4752d">
    <mxGraphModel dx="1167" dy="646" grid="1" gridSize="10" guides="1" tooltips="1" connect="1" arrows="1" fold="1" page="1" pageScale="1" pageWidth="1100" pageHeight="850" background="none" math="0" shadow="0">
      <root>
        <mxCell id="0" />
        <mxCell id="1" parent="0" />
        <mxCell id="5c82df7aa0dc6260-15" value="PC Production" style="ellipse;whiteSpace=wrap;html=1;rounded=1;shadow=0;comic=0;labelBackgroundColor=none;strokeColor=#6881B3;strokeWidth=2;fillColor=#CCFFCC;fontFamily=Helvetica;fontSize=22;fontColor=#000000;verticalAlign=middle;gradientColor=none;gradientDirection=north;spacingBottom=36;" parent="1" vertex="1">
          <mxGeometry x="670" y="260" width="380" height="280" as="geometry" />
        </mxCell>
        <mxCell id="5c82df7aa0dc6260-14" value="PC Exploitation" style="ellipse;whiteSpace=wrap;html=1;rounded=1;shadow=0;comic=0;labelBackgroundColor=none;strokeColor=#6881B3;strokeWidth=2;fillColor=#CCFFCC;fontFamily=Helvetica;fontSize=22;fontColor=#000000;verticalAlign=middle;gradientColor=none;gradientDirection=north;spacingBottom=17;" parent="1" vertex="1">
          <mxGeometry x="40" y="300" width="360" height="290" as="geometry" />
        </mxCell>
        <mxCell id="5c82df7aa0dc6260-78" value="" style="html=1;fillColor=#CCCCCC;strokeColor=#000000;gradientColor=none;gradientDirection=north;strokeWidth=2;shape=mxgraph.networks.comm_link_edge;html=1;labelBackgroundColor=none;endArrow=none;fontFamily=Verdana;fontSize=22;fontColor=#000000;" parent="1" edge="1" target="h5Pm5Uloc5LRutXR5Fcf-1" source="5c82df7aa0dc6260-14">
          <mxGeometry width="100" height="100" relative="1" as="geometry">
            <mxPoint x="240" y="520" as="sourcePoint" />
            <mxPoint x="350" y="450" as="targetPoint" />
            <Array as="points">
              <mxPoint x="290" y="470" />
              <mxPoint x="252" y="132" />
            </Array>
          </mxGeometry>
        </mxCell>
        <mxCell id="5c82df7aa0dc6260-79" value="" style="html=1;fillColor=#CCCCCC;strokeColor=#000000;gradientColor=none;gradientDirection=north;strokeWidth=2;shape=mxgraph.networks.comm_link_edge;html=1;labelBackgroundColor=none;endArrow=none;fontFamily=Verdana;fontSize=22;fontColor=#000000;" parent="1" edge="1" target="5c82df7aa0dc6260-15" source="h5Pm5Uloc5LRutXR5Fcf-1">
          <mxGeometry width="100" height="100" relative="1" as="geometry">
            <mxPoint x="380" y="450" as="sourcePoint" />
            <mxPoint x="500" y="530" as="targetPoint" />
            <Array as="points">
              <mxPoint x="499" y="473.23" />
            </Array>
          </mxGeometry>
        </mxCell>
        <mxCell id="h5Pm5Uloc5LRutXR5Fcf-1" value="" style="shape=mxgraph.cisco.routers.router;sketch=0;html=1;pointerEvents=1;dashed=0;fillColor=#036897;strokeColor=#ffffff;strokeWidth=2;verticalLabelPosition=bottom;verticalAlign=top;align=center;outlineConnect=0;" parent="1" vertex="1">
          <mxGeometry x="480" y="340" width="108" height="72" as="geometry" />
        </mxCell>
        <mxCell id="h5Pm5Uloc5LRutXR5Fcf-2" value="&lt;div align=&quot;left&quot;&gt;&lt;font style=&quot;font-size: 18px;&quot;&gt;Réseau de l&#39;entreprise : 192.168.100.0/25&lt;/font&gt;&lt;/div&gt;&lt;div align=&quot;left&quot;&gt;&lt;font style=&quot;font-size: 18px;&quot;&gt;&lt;span style=&quot;white-space: pre;&quot;&gt;&#x9;&lt;/span&gt;masque sous réseau : 255.255.255.0&lt;br&gt;&lt;/font&gt;&lt;/div&gt;&lt;div align=&quot;left&quot;&gt;&lt;font style=&quot;font-size: 18px;&quot;&gt;Sous réseau prod : 192.168.100.128/26&lt;/font&gt;&lt;/div&gt;&lt;div align=&quot;left&quot;&gt;&lt;font style=&quot;font-size: 18px;&quot;&gt;&lt;span style=&quot;white-space: pre;&quot;&gt;&#x9;&lt;/span&gt;masque du sous réseau : 255.255.255.128&lt;br&gt;&lt;/font&gt;&lt;/div&gt;" style="text;align=left;html=1;verticalAlign=middle;whiteSpace=wrap;rounded=0;fontColor=#FFFFFF;" parent="1" vertex="1">
          <mxGeometry x="18" y="20" width="660" height="70" as="geometry" />
        </mxCell>
        <mxCell id="9_X4-u2BbN_V8s1zpqvZ-1" value="" style="shape=mxgraph.cisco.switches.workgroup_switch;sketch=0;html=1;pointerEvents=1;dashed=0;fillColor=#036897;strokeColor=#ffffff;strokeWidth=2;verticalLabelPosition=bottom;verticalAlign=top;align=center;outlineConnect=0;" vertex="1" parent="1">
          <mxGeometry x="130" y="480" width="101" height="50" as="geometry" />
        </mxCell>
        <mxCell id="9_X4-u2BbN_V8s1zpqvZ-2" value="" style="shape=mxgraph.cisco.computers_and_peripherals.workstation;sketch=0;html=1;pointerEvents=1;dashed=0;fillColor=#036897;strokeColor=#ffffff;strokeWidth=2;verticalLabelPosition=bottom;verticalAlign=top;align=center;outlineConnect=0;" vertex="1" parent="1">
          <mxGeometry x="90" y="350" width="83" height="62" as="geometry" />
        </mxCell>
        <mxCell id="9_X4-u2BbN_V8s1zpqvZ-3" value="" style="shape=mxgraph.cisco.switches.workgroup_switch;sketch=0;html=1;pointerEvents=1;dashed=0;fillColor=#036897;strokeColor=#ffffff;strokeWidth=2;verticalLabelPosition=bottom;verticalAlign=top;align=center;outlineConnect=0;" vertex="1" parent="1">
          <mxGeometry x="800" y="430" width="101" height="50" as="geometry" />
        </mxCell>
        <mxCell id="9_X4-u2BbN_V8s1zpqvZ-4" value="" style="shape=mxgraph.cisco.computers_and_peripherals.workstation;sketch=0;html=1;pointerEvents=1;dashed=0;fillColor=#036897;strokeColor=#ffffff;strokeWidth=2;verticalLabelPosition=bottom;verticalAlign=top;align=center;outlineConnect=0;" vertex="1" parent="1">
          <mxGeometry x="910" y="300" width="83" height="62" as="geometry" />
        </mxCell>
      </root>
    </mxGraphModel>
  </diagram>
</mxfile>
